<svg width="896" height="965" viewBox="0 0 896 965" fill="none" xmlns="http://www.w3.org/2000/svg">
<g filter="url(#filter0_d_127_7)">
<path d="M668.071 427.502L511.964 517.193V688.113L694.505 583.243C694.759 583.097 695.015 582.957 695.27 582.815C678.828 571.295 668.071 552.256 668.071 530.687V427.502ZM293.674 320.419L446.074 407.983L600.09 319.506C595.575 318.123 591.146 316.219 586.883 313.77L446.074 232.869L293.674 320.419ZM678.778 530.687C678.778 559.957 702.623 583.685 732.036 583.685C761.449 583.685 785.292 559.957 785.292 530.687V361.699C785.292 324.558 783.191 314.193 773.542 295.748L772.586 293.937C758.789 268.084 725.313 259.91 699.842 274.545L446.076 420.326L272.194 320.419L446.076 220.529L592.219 304.495C617.692 319.13 650.272 310.452 664.979 285.103C679.684 259.754 670.947 227.348 645.475 212.714L476.362 115.549C466.829 110.073 458.237 106.7 448 106.699C437.76 106.698 425.343 110.054 415.807 115.532L139.07 274.529C138.807 274.68 138.548 274.839 138.289 274.994L137.283 275.616C136.114 276.349 134.98 277.118 133.887 277.926C133.655 278.098 133.422 278.268 133.193 278.444L132.384 279.079C131.585 279.722 130.812 280.388 130.054 281.066C129.373 281.677 128.73 282.332 128.078 282.982C127.419 283.636 126.756 284.281 126.137 284.965C125.288 285.904 124.463 286.872 123.676 287.88L122.895 288.899C122.092 289.981 121.335 291.107 120.607 292.264C120.422 292.557 120.231 292.846 120.053 293.143L119.584 293.937L119.165 294.672C118.754 295.41 118.363 296.156 117.989 296.904L117.832 297.197L117.105 298.768L116.738 299.605C115.902 301.565 115.217 303.559 114.625 305.565C114.433 306.218 114.238 306.87 114.071 307.531L113.881 308.314C113.7 309.098 113.543 309.885 113.395 310.672L113.24 311.532C113.191 311.82 113.145 312.108 113.101 312.396L112.98 313.22C112.868 314.043 112.775 314.866 112.701 315.691C112.641 316.352 112.58 317.013 112.545 317.676L112.492 319.057C112.481 319.517 112.476 319.977 112.477 320.436C112.476 321.35 112.498 322.264 112.545 323.179C112.581 323.871 112.638 324.56 112.701 325.25C112.792 326.24 112.901 327.229 113.048 328.217C113.163 328.98 113.3 329.738 113.447 330.495C113.622 331.394 113.813 332.291 114.036 333.185C114.242 334.009 114.485 334.822 114.73 335.635C115.035 336.644 115.333 337.658 115.701 338.655C115.764 338.827 115.826 339.001 115.891 339.172C116.409 340.531 116.986 341.877 117.625 343.209C117.743 343.457 117.867 343.704 117.989 343.951C118.489 344.953 119.014 345.953 119.584 346.936C119.736 347.197 119.897 347.454 120.053 347.712C120.227 348.002 120.409 348.287 120.589 348.574C121.35 349.784 122.158 350.948 123 352.076C123.177 352.313 123.355 352.549 123.536 352.783C124.372 353.865 125.248 354.903 126.154 355.906C126.817 356.638 127.526 357.33 128.235 358.028C128.802 358.589 129.345 359.17 129.934 359.702C130.978 360.641 132.063 361.545 133.193 362.41C133.422 362.585 133.655 362.757 133.887 362.929C134.963 363.725 136.08 364.481 137.231 365.205C137.644 365.464 138.062 365.716 138.481 365.964C138.679 366.081 138.87 366.211 139.07 366.326L394.744 513.212V708.815L217.222 606.839V442.357C217.218 413.09 193.374 389.358 163.964 389.358C134.554 389.359 110.712 413.09 110.708 442.357V636.686L110.725 638.072C111.095 652.35 117.152 665.217 126.708 674.535C130.229 678.298 134.363 681.613 139.07 684.319L415.807 843.314C424.748 848.451 434.541 850.098 444.169 850.283L446.093 850.301C456.011 850.3 466.172 848.883 475.465 843.816L476.362 843.314L753.1 684.319C778.171 669.913 787.027 638.284 773.274 613.121L772.603 611.928C757.897 586.58 725.314 577.886 699.842 592.52L501.256 706.607V511.004L678.778 409.009V530.687ZM227.929 600.647L384.036 690.323V519.401L226.49 428.892C227.428 433.232 227.929 437.735 227.929 442.355V600.647ZM796 530.687C796 554.598 782.778 575.396 763.248 586.291C770.64 591.454 777.051 598.262 781.866 606.562L782.675 607.999C799.218 638.269 788.547 676.293 758.438 693.594L481.699 852.589C469.908 859.362 457.302 860.999 446.093 861C434.881 861.001 422.266 859.367 410.469 852.589L133.732 693.594L133.73 693.592C128.168 690.395 123.26 686.478 119.061 682.025C107.327 670.498 100 654.445 100 636.686V442.355C100.004 413.963 118.648 389.951 144.364 381.712L133.732 375.603L133.73 375.601C133.419 375.422 133.154 375.253 133.059 375.194C132.99 375.15 132.978 375.143 132.961 375.133C132.5 374.86 132.021 374.57 131.531 374.262L131.529 374.26C130.175 373.409 128.833 372.502 127.515 371.528L127.508 371.523C127.344 371.401 127.002 371.15 126.684 370.906L125.671 370.116C124.67 369.317 123.703 368.493 122.766 367.65L122.756 367.641C121.962 366.924 120.892 365.822 120.715 365.645L119.57 364.51C119.138 364.074 118.671 363.59 118.216 363.087L118.207 363.077C117.139 361.895 116.086 360.649 115.066 359.329L114.42 358.478L114.415 358.472C113.423 357.144 112.452 355.744 111.523 354.267L111.522 354.265C111.397 354.067 111.122 353.634 110.877 353.227C110.833 353.155 110.517 352.64 110.321 352.301C109.603 351.064 108.969 349.854 108.405 348.724L108.397 348.705C108.292 348.493 108.128 348.167 107.968 347.832L107.407 346.627C106.859 345.42 106.352 344.204 105.885 342.981L105.878 342.962C105.788 342.722 105.675 342.413 105.648 342.34L105.65 342.338C105.147 340.973 104.743 339.602 104.479 338.726L104.475 338.716C104.239 337.931 103.923 336.881 103.646 335.771L103.648 335.77C103.366 334.641 103.133 333.553 102.935 332.534L102.937 332.532C102.772 331.688 102.604 330.769 102.459 329.802L102.457 329.791C102.271 328.543 102.14 327.342 102.037 326.22L102.039 326.218C101.968 325.454 101.899 324.62 101.853 323.745L101.851 323.728C101.794 322.628 101.768 321.527 101.769 320.426C101.768 319.33 101.795 318.23 101.853 317.124V317.107C101.901 316.208 101.98 315.345 102.037 314.721C102.155 313.418 102.311 312.1 102.517 310.768L102.518 310.759C102.622 310.088 102.738 309.396 102.872 308.687C103.088 307.54 103.35 306.253 103.689 304.91C103.919 304.001 104.189 303.107 104.352 302.552L104.355 302.541C105.131 299.911 106.087 297.149 107.344 294.365L108.118 292.699L108.163 292.6L108.212 292.5C108.298 292.325 108.375 292.178 108.428 292.079C108.448 292.042 108.467 292.006 108.484 291.976C109.049 290.852 109.658 289.712 110.321 288.57L110.882 287.619C111.121 287.224 111.537 286.574 111.542 286.566L111.544 286.564C112.384 285.231 113.295 283.872 114.293 282.527L114.298 282.522C114.634 282.07 114.961 281.647 115.235 281.296C116.213 280.044 117.209 278.879 118.188 277.796L118.196 277.787C119.058 276.836 119.991 275.929 120.528 275.394C121.063 274.862 121.961 273.95 122.902 273.106L122.911 273.097C124.043 272.084 125.302 271.006 126.684 269.949C127.002 269.705 127.339 269.457 127.51 269.331L127.517 269.326C128.845 268.344 130.206 267.422 131.592 266.553L131.593 266.551C131.887 266.367 132.338 266.083 132.803 265.806C132.873 265.764 133.39 265.449 133.732 265.252L410.469 106.257L411.518 105.667C422.44 99.651 436.181 95.9989 448.002 96C460.883 96.0014 471.377 100.345 481.699 106.274L650.814 203.439C675.759 217.771 687.361 246.324 681.201 272.911L694.505 265.27L695.931 264.474C726.017 248.185 765.413 257.758 782.033 288.903C787.511 299.168 791.225 307.594 793.379 318.773C795.459 329.571 796 342.519 796 361.699V530.687Z" fill="black" fill-opacity="0.7" shape-rendering="crispEdges"/>
</g>
<defs>
<filter id="filter0_d_127_7" x="0" y="0" width="896" height="965" filterUnits="userSpaceOnUse" color-interpolation-filters="sRGB">
<feFlood flood-opacity="0" result="BackgroundImageFix"/>
<feColorMatrix in="SourceAlpha" type="matrix" values="0 0 0 0 0 0 0 0 0 0 0 0 0 0 0 0 0 0 127 0" result="hardAlpha"/>
<feOffset dy="4"/>
<feGaussianBlur stdDeviation="50"/>
<feComposite in2="hardAlpha" operator="out"/>
<feColorMatrix type="matrix" values="0 0 0 0 0 0 0 0 0 0 0 0 0 0 0 0 0 0 0.25 0"/>
<feBlend mode="normal" in2="BackgroundImageFix" result="effect1_dropShadow_127_7"/>
<feBlend mode="normal" in="SourceGraphic" in2="effect1_dropShadow_127_7" result="shape"/>
</filter>
</defs>
</svg>
